<svg width="40" height="43" viewBox="0 0 40 43" fill="none" xmlns="http://www.w3.org/2000/svg">
<mask id="path-1-inside-1_512_13" fill="white">
<path d="M20 0C29.571 0 37.3359 7.60194 37.3906 17H37.3926V29.7148C38.8931 30.1094 39.9998 31.4753 40 33.0996C40 35.0326 38.433 36.5996 36.5 36.5996H28.8721C27.4267 40.3434 23.7956 43 19.542 43C15.2884 43 11.6572 40.3434 10.2119 36.5996H3.5C1.567 36.5996 0 35.0326 0 33.0996C0.000182895 31.4742 1.10831 30.1074 2.61035 29.7139V17.1875C2.6102 17.1584 2.60938 17.1288 2.60938 17.0996C2.60962 7.65581 10.3953 0.00014849 20 0Z"/>
</mask>
<path d="M20 0C29.571 0 37.3359 7.60194 37.3906 17H37.3926V29.7148C38.8931 30.1094 39.9998 31.4753 40 33.0996C40 35.0326 38.433 36.5996 36.5 36.5996H28.8721C27.4267 40.3434 23.7956 43 19.542 43C15.2884 43 11.6572 40.3434 10.2119 36.5996H3.5C1.567 36.5996 0 35.0326 0 33.0996C0.000182895 31.4742 1.10831 30.1074 2.61035 29.7139V17.1875C2.6102 17.1584 2.60938 17.1288 2.60938 17.0996C2.60962 7.65581 10.3953 0.00014849 20 0Z" fill="white"/>
<path d="M20 0V-2H20L20 0ZM37.3906 17L35.3907 17.0117L35.4022 19H37.3906V17ZM37.3926 17H39.3926V15H37.3926V17ZM37.3926 29.7148H35.3926V31.2569L36.8839 31.6491L37.3926 29.7148ZM40 33.0996H42V33.0994L40 33.0996ZM28.8721 36.5996V34.5996H27.5003L27.0063 35.8793L28.8721 36.5996ZM10.2119 36.5996L12.0777 35.8793L11.5837 34.5996H10.2119V36.5996ZM0 33.0996L-2 33.0994V33.0996H0ZM2.61035 29.7139L3.11727 31.6486L4.61035 31.2573V29.7139H2.61035ZM2.61035 17.1875H4.61038L4.61033 17.1773L2.61035 17.1875ZM2.60938 17.0996L0.609375 17.0996V17.0996H2.60938ZM20 0V2C28.502 2 35.3425 8.74434 35.3907 17.0117L37.3906 17L39.3906 16.9883C39.3292 6.45954 30.64 -2 20 -2V0ZM37.3906 17V19H37.3926V17V15H37.3906V17ZM37.3926 17H35.3926V29.7148H37.3926H39.3926V17H37.3926ZM37.3926 29.7148L36.8839 31.6491C37.5276 31.8183 37.9999 32.4065 38 33.0998L40 33.0996L42 33.0994C41.9997 30.5441 40.2586 28.4005 37.9012 27.7806L37.3926 29.7148ZM40 33.0996H38C38 33.928 37.3284 34.5996 36.5 34.5996V36.5996V38.5996C39.5376 38.5996 42 36.1372 42 33.0996H40ZM36.5 36.5996V34.5996H28.8721V36.5996V38.5996H36.5V36.5996ZM28.8721 36.5996L27.0063 35.8793C25.8484 38.8784 22.9409 41 19.542 41V43V45C24.6502 45 29.005 41.8084 30.7379 37.3199L28.8721 36.5996ZM19.542 43V41C16.143 41 13.2355 38.8784 12.0777 35.8793L10.2119 36.5996L8.34613 37.3199C10.0789 41.8084 14.4338 45 19.542 45V43ZM10.2119 36.5996V34.5996H3.5V36.5996V38.5996H10.2119V36.5996ZM3.5 36.5996V34.5996C2.67157 34.5996 2 33.928 2 33.0996H0H-2C-2 36.1372 0.462434 38.5996 3.5 38.5996V36.5996ZM0 33.0996L2 33.0998C2.00008 32.4058 2.47318 31.8173 3.11727 31.6486L2.61035 29.7139L2.10343 27.7792C-0.256551 28.3975 -1.99971 30.5426 -2 33.0994L0 33.0996ZM2.61035 29.7139H4.61035V17.1875H2.61035H0.610352V29.7139H2.61035ZM2.61035 17.1875L4.61033 17.1773C4.61019 17.15 4.60973 17.1231 4.60957 17.1128C4.60934 17.098 4.60938 17.0972 4.60938 17.0996H2.60938H0.609375C0.609375 17.1312 0.609821 17.1598 0.610044 17.1743C0.610183 17.1834 0.610252 17.1877 0.610317 17.1925C0.610373 17.1966 0.610379 17.1979 0.610377 17.1977L2.61035 17.1875ZM2.60938 17.0996L4.60938 17.0997C4.60959 8.79204 11.468 2.00013 20 2L20 0L20 -2C9.32267 -1.99983 0.609651 6.51957 0.609375 17.0996L2.60938 17.0996Z" fill="#B3B3B3" mask="url(#path-1-inside-1_512_13)"/>
</svg>
